<mxfile host="app.diagrams.net" modified="2024-03-06T14:53:23.375Z" agent="Mozilla/5.0 (Windows NT 10.0; Win64; x64; rv:123.0) Gecko/20100101 Firefox/123.0" etag="uXMtGRsHkESEkKNWNGX-" version="24.0.2" type="device">
  <diagram name="Page-1" id="egUYJQ8RJS1jRixnhz30">
    <mxGraphModel dx="2954" dy="1134" grid="1" gridSize="10" guides="1" tooltips="1" connect="1" arrows="1" fold="1" page="1" pageScale="1" pageWidth="850" pageHeight="1100" math="0" shadow="0">
      <root>
        <mxCell id="0" />
        <mxCell id="1" parent="0" />
        <mxCell id="UGST-MiU3g8mQJncfhDs-1" value="ResumeCustomerWorkflow" style="swimlane;fontStyle=0;childLayout=stackLayout;horizontal=1;startSize=26;fillColor=none;horizontalStack=0;resizeParent=1;resizeParentMax=0;resizeLast=0;collapsible=1;marginBottom=0;whiteSpace=wrap;html=1;" vertex="1" parent="1">
          <mxGeometry x="310" y="270" width="220" height="438" as="geometry" />
        </mxCell>
        <mxCell id="UGST-MiU3g8mQJncfhDs-2" value="- id: long" style="text;strokeColor=none;fillColor=none;align=left;verticalAlign=top;spacingLeft=4;spacingRight=4;overflow=hidden;rotatable=0;points=[[0,0.5],[1,0.5]];portConstraint=eastwest;whiteSpace=wrap;html=1;" vertex="1" parent="UGST-MiU3g8mQJncfhDs-1">
          <mxGeometry y="26" width="220" height="26" as="geometry" />
        </mxCell>
        <mxCell id="UGST-MiU3g8mQJncfhDs-3" value="- description: string" style="text;strokeColor=none;fillColor=none;align=left;verticalAlign=top;spacingLeft=4;spacingRight=4;overflow=hidden;rotatable=0;points=[[0,0.5],[1,0.5]];portConstraint=eastwest;whiteSpace=wrap;html=1;" vertex="1" parent="UGST-MiU3g8mQJncfhDs-1">
          <mxGeometry y="52" width="220" height="26" as="geometry" />
        </mxCell>
        <mxCell id="UGST-MiU3g8mQJncfhDs-4" value="&lt;div&gt;- creationDate: localDate&lt;/div&gt;&lt;div&gt;&lt;br&gt;&lt;/div&gt;" style="text;strokeColor=none;fillColor=none;align=left;verticalAlign=top;spacingLeft=4;spacingRight=4;overflow=hidden;rotatable=0;points=[[0,0.5],[1,0.5]];portConstraint=eastwest;whiteSpace=wrap;html=1;" vertex="1" parent="UGST-MiU3g8mQJncfhDs-1">
          <mxGeometry y="78" width="220" height="22" as="geometry" />
        </mxCell>
        <mxCell id="UGST-MiU3g8mQJncfhDs-6" value="- dueDate: localDate" style="text;strokeColor=none;fillColor=none;align=left;verticalAlign=top;spacingLeft=4;spacingRight=4;overflow=hidden;rotatable=0;points=[[0,0.5],[1,0.5]];portConstraint=eastwest;whiteSpace=wrap;html=1;" vertex="1" parent="UGST-MiU3g8mQJncfhDs-1">
          <mxGeometry y="100" width="220" height="26" as="geometry" />
        </mxCell>
        <mxCell id="UGST-MiU3g8mQJncfhDs-8" value="- owner: User" style="text;strokeColor=none;fillColor=none;align=left;verticalAlign=top;spacingLeft=4;spacingRight=4;overflow=hidden;rotatable=0;points=[[0,0.5],[1,0.5]];portConstraint=eastwest;whiteSpace=wrap;html=1;" vertex="1" parent="UGST-MiU3g8mQJncfhDs-1">
          <mxGeometry y="126" width="220" height="26" as="geometry" />
        </mxCell>
        <mxCell id="UGST-MiU3g8mQJncfhDs-9" value="- state: TaskStateEnum" style="text;strokeColor=none;fillColor=none;align=left;verticalAlign=top;spacingLeft=4;spacingRight=4;overflow=hidden;rotatable=0;points=[[0,0.5],[1,0.5]];portConstraint=eastwest;whiteSpace=wrap;html=1;" vertex="1" parent="UGST-MiU3g8mQJncfhDs-1">
          <mxGeometry y="152" width="220" height="26" as="geometry" />
        </mxCell>
        <mxCell id="UGST-MiU3g8mQJncfhDs-11" value="- title: string" style="text;strokeColor=none;fillColor=none;align=left;verticalAlign=top;spacingLeft=4;spacingRight=4;overflow=hidden;rotatable=0;points=[[0,0.5],[1,0.5]];portConstraint=eastwest;whiteSpace=wrap;html=1;" vertex="1" parent="UGST-MiU3g8mQJncfhDs-1">
          <mxGeometry y="178" width="220" height="26" as="geometry" />
        </mxCell>
        <mxCell id="UGST-MiU3g8mQJncfhDs-12" value="- salutation: Salutation" style="text;strokeColor=none;fillColor=none;align=left;verticalAlign=top;spacingLeft=4;spacingRight=4;overflow=hidden;rotatable=0;points=[[0,0.5],[1,0.5]];portConstraint=eastwest;whiteSpace=wrap;html=1;" vertex="1" parent="UGST-MiU3g8mQJncfhDs-1">
          <mxGeometry y="204" width="220" height="26" as="geometry" />
        </mxCell>
        <mxCell id="UGST-MiU3g8mQJncfhDs-13" value="- gender: Gender" style="text;strokeColor=none;fillColor=none;align=left;verticalAlign=top;spacingLeft=4;spacingRight=4;overflow=hidden;rotatable=0;points=[[0,0.5],[1,0.5]];portConstraint=eastwest;whiteSpace=wrap;html=1;" vertex="1" parent="UGST-MiU3g8mQJncfhDs-1">
          <mxGeometry y="230" width="220" height="26" as="geometry" />
        </mxCell>
        <mxCell id="UGST-MiU3g8mQJncfhDs-14" value="- firstName: string" style="text;strokeColor=none;fillColor=none;align=left;verticalAlign=top;spacingLeft=4;spacingRight=4;overflow=hidden;rotatable=0;points=[[0,0.5],[1,0.5]];portConstraint=eastwest;whiteSpace=wrap;html=1;" vertex="1" parent="UGST-MiU3g8mQJncfhDs-1">
          <mxGeometry y="256" width="220" height="26" as="geometry" />
        </mxCell>
        <mxCell id="UGST-MiU3g8mQJncfhDs-15" value="- lastName: string" style="text;strokeColor=none;fillColor=none;align=left;verticalAlign=top;spacingLeft=4;spacingRight=4;overflow=hidden;rotatable=0;points=[[0,0.5],[1,0.5]];portConstraint=eastwest;whiteSpace=wrap;html=1;" vertex="1" parent="UGST-MiU3g8mQJncfhDs-1">
          <mxGeometry y="282" width="220" height="26" as="geometry" />
        </mxCell>
        <mxCell id="UGST-MiU3g8mQJncfhDs-16" value="- birthdate: localDate" style="text;strokeColor=none;fillColor=none;align=left;verticalAlign=top;spacingLeft=4;spacingRight=4;overflow=hidden;rotatable=0;points=[[0,0.5],[1,0.5]];portConstraint=eastwest;whiteSpace=wrap;html=1;" vertex="1" parent="UGST-MiU3g8mQJncfhDs-1">
          <mxGeometry y="308" width="220" height="26" as="geometry" />
        </mxCell>
        <mxCell id="UGST-MiU3g8mQJncfhDs-17" value="- phoneNumber: string" style="text;strokeColor=none;fillColor=none;align=left;verticalAlign=top;spacingLeft=4;spacingRight=4;overflow=hidden;rotatable=0;points=[[0,0.5],[1,0.5]];portConstraint=eastwest;whiteSpace=wrap;html=1;" vertex="1" parent="UGST-MiU3g8mQJncfhDs-1">
          <mxGeometry y="334" width="220" height="26" as="geometry" />
        </mxCell>
        <mxCell id="UGST-MiU3g8mQJncfhDs-18" value="- email: string" style="text;strokeColor=none;fillColor=none;align=left;verticalAlign=top;spacingLeft=4;spacingRight=4;overflow=hidden;rotatable=0;points=[[0,0.5],[1,0.5]];portConstraint=eastwest;whiteSpace=wrap;html=1;" vertex="1" parent="UGST-MiU3g8mQJncfhDs-1">
          <mxGeometry y="360" width="220" height="26" as="geometry" />
        </mxCell>
        <mxCell id="UGST-MiU3g8mQJncfhDs-19" value="- smoker: bool" style="text;strokeColor=none;fillColor=none;align=left;verticalAlign=top;spacingLeft=4;spacingRight=4;overflow=hidden;rotatable=0;points=[[0,0.5],[1,0.5]];portConstraint=eastwest;whiteSpace=wrap;html=1;" vertex="1" parent="UGST-MiU3g8mQJncfhDs-1">
          <mxGeometry y="386" width="220" height="26" as="geometry" />
        </mxCell>
        <mxCell id="UGST-MiU3g8mQJncfhDs-20" value="- address: Address" style="text;strokeColor=none;fillColor=none;align=left;verticalAlign=top;spacingLeft=4;spacingRight=4;overflow=hidden;rotatable=0;points=[[0,0.5],[1,0.5]];portConstraint=eastwest;whiteSpace=wrap;html=1;" vertex="1" parent="UGST-MiU3g8mQJncfhDs-1">
          <mxGeometry y="412" width="220" height="26" as="geometry" />
        </mxCell>
      </root>
    </mxGraphModel>
  </diagram>
</mxfile>
